<svg width="56" height="54" viewBox="0 0 56 54" fill="none" xmlns="http://www.w3.org/2000/svg">
<path d="M12.2281 6.56023C18.6156 11.1692 25.4844 20.5348 28 25.5657C30.5156 20.5454 37.3844 11.1798 43.7719 6.56023C48.3766 3.22742 55.8359 0.653978 55.8359 8.85945C55.8359 10.4942 54.8625 22.6231 54.2938 24.5954C52.3031 31.4298 45.0625 33.1805 38.6203 32.1153C49.875 33.961 52.7406 40.0782 46.55 46.1954C34.8031 57.818 29.6734 43.2844 28.3609 39.5614C28.175 39.0446 28.0766 38.7387 28 38.7387C27.9234 38.7387 27.825 39.0551 27.6391 39.5614C26.3266 43.2844 21.1859 57.818 9.45 46.1954C3.27031 40.0782 6.125 33.961 17.3797 32.1153C10.9375 33.1805 3.69688 31.4298 1.71719 24.5848C1.1375 22.6126 0.164062 10.4837 0.164062 8.8489C0.164062 0.643431 7.62344 3.21687 12.2281 6.54968V6.56023Z"
fill="#36404E"/>
</svg>
