<svg width="54" height="54" viewBox="0 0 54 54" fill="none" xmlns="http://www.w3.org/2000/svg">
<path d="M18.0617 41.9133C18.0617 42.1242 17.8113 42.293 17.4956 42.293C17.1363 42.3246 16.8859 42.1559 16.8859 41.9133C16.8859 41.7023 17.1363 41.5336 17.452 41.5336C17.7786 41.502 18.0617 41.6707 18.0617 41.9133ZM14.6758 41.4387C14.5996 41.6496 14.8173 41.8922 15.144 41.9555C15.427 42.0609 15.7536 41.9555 15.819 41.7445C15.8843 41.5336 15.6774 41.291 15.3508 41.1961C15.0677 41.1223 14.752 41.2277 14.6758 41.4387ZM19.4879 41.2594C19.1722 41.3332 18.9544 41.5336 18.9871 41.7762C19.0198 41.9871 19.3028 42.1242 19.6294 42.0504C19.9452 41.9766 20.1629 41.7762 20.1302 41.5652C20.0976 41.3648 19.8036 41.2277 19.4879 41.2594ZM26.6516 0.84375C11.5512 0.84375 0 11.9496 0 26.5781C0 38.2746 7.59919 48.2836 18.4536 51.8063C19.8472 52.0488 20.3371 51.2156 20.3371 50.5301C20.3371 49.8762 20.3044 46.2691 20.3044 44.0543C20.3044 44.0543 12.6835 45.6363 11.0831 40.9113C11.0831 40.9113 9.84194 37.8422 8.05645 37.0512C8.05645 37.0512 5.56331 35.3953 8.23065 35.427C8.23065 35.427 10.9415 35.6379 12.4331 38.148C14.8173 42.2191 18.8129 41.0484 20.3698 40.3523C20.6202 38.6648 21.3278 37.4941 22.1117 36.798C16.0258 36.1441 9.88548 35.2898 9.88548 25.1437C9.88548 22.2434 10.7129 20.7879 12.4548 18.9316C12.1718 18.2461 11.2464 15.4195 12.7379 11.7703C15.0133 11.0848 20.25 14.618 20.25 14.618C22.4274 14.0273 24.7681 13.7215 27.0871 13.7215C29.406 13.7215 31.7468 14.0273 33.9242 14.618C33.9242 14.618 39.1609 11.0742 41.4363 11.7703C42.9278 15.4301 42.0024 18.2461 41.7194 18.9316C43.4613 20.7984 44.5282 22.2539 44.5282 25.1437C44.5282 35.3215 38.1157 36.1336 32.0298 36.798C33.0315 37.6312 33.8806 39.2133 33.8806 41.6918C33.8806 45.2461 33.848 49.6441 33.848 50.509C33.848 51.1945 34.3488 52.0277 35.7315 51.7852C46.6185 48.2836 54 38.2746 54 26.5781C54 11.9496 41.752 0.84375 26.6516 0.84375ZM10.5823 37.2199C10.4407 37.3254 10.4734 37.568 10.6585 37.7684C10.8327 37.9371 11.0831 38.0109 11.2246 37.8738C11.3661 37.7684 11.3335 37.5258 11.1484 37.3254C10.9742 37.1566 10.7238 37.0828 10.5823 37.2199ZM9.40645 36.3656C9.33024 36.5027 9.43911 36.6715 9.65685 36.777C9.83105 36.8824 10.0488 36.8508 10.125 36.7031C10.2012 36.566 10.0923 36.3973 9.8746 36.2918C9.65685 36.2285 9.48266 36.2602 9.40645 36.3656ZM12.9339 40.1203C12.7597 40.2574 12.825 40.5738 13.0754 40.7742C13.3258 41.0168 13.6415 41.0484 13.7831 40.8797C13.9246 40.7426 13.8593 40.4262 13.6415 40.2258C13.402 39.9832 13.0754 39.9516 12.9339 40.1203ZM11.6927 38.5699C11.5185 38.6754 11.5185 38.9496 11.6927 39.1922C11.8669 39.4348 12.1609 39.5402 12.3024 39.4348C12.4766 39.2977 12.4766 39.0234 12.3024 38.7809C12.15 38.5383 11.8669 38.4328 11.6927 38.5699Z" fill="#36404E"/>
</svg>
