<svg width="56" height="56" viewBox="0 0 56 56" fill="none" xmlns="http://www.w3.org/2000/svg">
<path d="M12.5375 49H0.925V16.2859H12.5375V49ZM6.725 11.8234C3.0125 11.8234 0 9.13281 0 5.88438C0 4.32374 0.708525 2.82703 1.96971 1.72349C3.23089 0.619959 4.94142 0 6.725 0C8.50858 0 10.2191 0.619959 11.4803 1.72349C12.7415 2.82703 13.45 4.32374 13.45 5.88438C13.45 9.13281 10.4375 11.8234 6.725 11.8234ZM55.9875 49H44.4V33.075C44.4 29.2797 44.3125 24.4125 38.3625 24.4125C32.325 24.4125 31.4 28.5359 31.4 32.8016V49H19.8V16.2859H30.9375V20.7484H31.1C32.65 18.1781 36.4375 15.4656 42.0875 15.4656C53.8375 15.4656 56 22.2359 56 31.0297V49H55.9875Z" fill="#36404E"/>
</svg>
